<svg width="1440" height="829" viewBox="0 0 1440 829" fill="none" xmlns="http://www.w3.org/2000/svg">
<g opacity="0.45" filter="url(#filter0_f_34_264)">
<ellipse cx="212" cy="448" rx="234" ry="230" fill="#804AC9" fill-opacity="0.36"/>
</g>
<g opacity="0.45" filter="url(#filter1_f_34_264)">
<ellipse cx="519" cy="317" rx="234" ry="230" fill="#EEFD8F" fill-opacity="0.44"/>
</g>
<g opacity="0.45" filter="url(#filter2_f_34_264)">
<ellipse cx="859" cy="498" rx="234" ry="230" fill="#804AC9" fill-opacity="0.31"/>
</g>
<g opacity="0.45" filter="url(#filter3_f_34_264)">
<ellipse cx="1123" cy="418.5" rx="348" ry="263.5" fill="#EEFD8F" fill-opacity="0.49"/>
</g>
<g opacity="0.45" filter="url(#filter4_f_34_264)">
<ellipse cx="-36" cy="512" rx="234" ry="230" fill="#EEFD8F" fill-opacity="0.53"/>
</g>
<path d="M-99.7029 296.677C-100.642 273.549 -82.0695 253.189 -66.9454 249.001C-53.349 245.262 -41.5621 249.599 -31.4395 259.77C-29.2889 262.019 -27.0081 264.115 -24.6114 266.043C-15.496 273.082 -10.759 270.352 -6.96091 258.34C-4.52842 250.637 -6.65366 243.177 -8.66793 236.007C-12.6709 221.742 -12.5855 207.607 -6.96091 194.248C-2.47147 183.666 4.98818 175.945 16.4593 174.253C30.2008 172.215 44.5653 182.75 46.9039 196.95C47.8769 202.868 45.4785 208.233 44.6506 213.852C43.8654 219.171 42.9436 224.462 43.4813 229.903C44.0532 235.895 47.1855 237.951 52.2042 235.511C56.4263 233.276 60.239 230.212 63.4534 226.472C77.2887 211.262 93.4883 209.925 110.456 217.769C122.815 223.49 124.667 238.045 115.415 247.842C110.908 252.609 105.045 254.657 99.7189 257.788C96.9706 259.405 94.0772 260.733 91.3972 262.462C83.5791 267.557 82.5549 276.045 88.5294 283.898C95.0075 292.405 104.225 295.284 113.23 298.574C122.234 301.865 129.814 306.661 132.861 317.317C136.471 329.863 131.153 339.482 121.825 344.876C109.389 352.065 95.861 351.953 82.3671 350.12C76.4902 349.157 70.5414 348.825 64.6056 349.129C57.6666 349.681 54.5257 355.879 51.7518 361.964C48.0732 370.032 46.6308 379.072 43.029 387.13C38.531 397.132 34.1866 407.285 23.7141 412.005C9.47762 418.418 -11.8344 415.315 -18.8588 395.01C-21.8034 386.485 -21.0182 377.623 -18.9868 368.891C-16.4775 358.066 -12.21 347.839 -9.97379 336.874C-8.26678 328.507 -11.1431 321.917 -17.7151 319.655C-19.2202 319.239 -20.7938 319.22 -22.307 319.598C-32.4466 321.281 -41.7328 326.292 -51.7615 328.442C-60.2965 330.311 -68.8316 331.069 -77.4606 329.18C-91.4325 326.152 -101.922 313.952 -99.7029 296.677ZM53.3479 292.199C54.7391 280.757 46.3406 273.502 40.2636 272.25C27.6317 269.632 16.3654 276.4 11.3468 289.357C6.7976 301.098 12.1235 311.793 20.6671 315.822C36.2948 323.085 54.5172 305.95 53.3479 292.171V292.199Z" fill="#FEA57D" fill-opacity="0.49"/>
<path d="M1367.42 492.763C1366.69 491.833 1365.73 491.029 1364.62 490.396C1356.27 484.596 1348.04 478.687 1339.49 473.108C1331.78 467.989 1324.48 462.472 1317.64 456.591C1315.63 454.935 1313.8 453.149 1312.15 451.25C1310.48 449.431 1309.35 447.332 1308.82 445.108C1308.3 442.884 1308.4 440.592 1309.12 438.404C1309.79 436.148 1310.86 433.984 1312.3 431.98C1314.57 428.97 1316.53 425.814 1318.68 422.804C1322.04 418.182 1326.01 413.874 1330.53 409.958C1332.75 408.299 1335.41 407.091 1338.31 406.434C1338.82 406.317 1339.36 406.284 1339.88 406.338C1340.4 406.391 1340.91 406.53 1341.37 406.746C1342.72 407.301 1343.94 408.047 1344.96 408.948C1348.92 411.976 1352.25 415.445 1355.82 418.748C1359.39 422.052 1362.61 425.263 1366.18 428.438C1372.74 434.311 1379.75 439.798 1386.1 445.891C1386.2 445.986 1386.32 446.067 1386.44 446.13C1386.86 446.226 1387.28 446.269 1387.71 446.258C1387.82 446.258 1388 445.836 1387.96 445.616C1387.9 445.137 1387.77 444.663 1387.6 444.203C1385.56 438.055 1382.87 432.09 1380.36 426.071C1374.99 413.09 1369.59 400.127 1364.14 387.183C1362.76 383.826 1361.79 380.364 1361.25 376.85C1360.92 374.408 1361.42 371.939 1362.7 369.711C1363.92 366.778 1366.5 364.344 1369.89 362.921C1370.31 362.791 1370.7 362.591 1371.02 362.333C1374.21 359.048 1378.89 357.58 1383.23 355.69C1385.09 354.901 1386.99 354.203 1388.84 353.414C1393.24 351.547 1397.95 350.211 1402.82 349.45C1407.56 348.656 1412.47 348.916 1417.05 350.203C1423.34 352.037 1428.66 355.568 1432.13 360.205C1435.96 364.878 1439 369.945 1441.18 375.272C1442.6 378.942 1443.76 382.613 1444.77 386.283C1446.56 392.707 1447.76 399.222 1448.82 405.755C1450.07 413.353 1450.68 421.006 1452.55 428.53C1453.82 428.53 1454.09 427.723 1454.43 427.099C1456.69 422.859 1459.18 418.657 1461.22 414.362C1463.98 408.691 1466.53 402.965 1469.09 397.24C1469.99 395.181 1471.25 393.24 1472.84 391.477C1473.53 390.691 1474.42 390.034 1475.45 389.55C1476.48 389.066 1477.63 388.766 1478.81 388.669C1481.06 388.403 1483.36 388.612 1485.49 389.275C1489.97 390.71 1494.31 392.421 1498.47 394.395C1500.96 395.551 1503.4 396.762 1505.82 398.065C1509.75 399.836 1512.8 402.66 1514.45 406.054C1516.1 409.449 1516.25 413.203 1514.87 416.675C1514.23 418.51 1513.73 420.473 1513.01 422.327C1511.14 426.955 1508.81 431.454 1506.04 435.779C1502.74 441.12 1499.15 446.369 1495.66 451.636C1495.2 452.115 1494.93 452.698 1494.89 453.306C1496.37 453.117 1497.81 452.758 1499.17 452.241L1520.72 441.615C1520.95 441.452 1521.2 441.311 1521.47 441.193C1524.26 440.279 1526.83 438.967 1529.05 437.321C1529.74 436.887 1530.5 436.535 1531.31 436.275C1532.87 435.634 1534.65 435.427 1536.37 435.685C1538.09 435.944 1539.66 436.654 1540.83 437.706C1542.57 439.206 1544.08 440.863 1545.35 442.643C1549.81 449.297 1553.66 456.203 1556.89 463.308C1559.38 468.96 1557.32 473.842 1553.5 478.503C1550.49 482.174 1546.08 484.89 1542.98 488.505C1539.65 489.808 1537.89 492.635 1534.63 494.011C1532.87 494.944 1531.18 495.962 1529.57 497.058C1528.13 497.916 1526.62 498.689 1525.04 499.37C1523.9 499.687 1522.95 500.343 1522.37 501.205C1521.9 501.994 1520.56 502.416 1519.64 503.04C1519.55 503.131 1519.5 503.237 1519.47 503.348C1519.45 503.46 1519.46 503.575 1519.5 503.683C1519.57 503.786 1519.66 503.874 1519.78 503.938C1519.9 504.002 1520.04 504.041 1520.18 504.05C1522.56 503.823 1524.9 503.392 1527.17 502.765C1533.95 501.187 1540.74 499.627 1547.52 497.994C1550.75 497.347 1554.08 497.154 1557.39 497.425C1558.44 497.454 1559.47 497.694 1560.39 498.123C1561.3 498.551 1562.07 499.156 1562.63 499.884C1564.58 502.214 1566.15 504.737 1567.31 507.39C1569.64 513.061 1571.4 518.872 1572.58 524.769C1573.65 529.578 1574.42 534.404 1575.1 539.249C1575.18 539.731 1575.35 540.2 1575.59 540.644C1576.14 541.923 1576.14 543.311 1575.59 544.59C1574.5 548.166 1572.28 551.449 1569.15 554.115C1565.2 557.503 1560.62 560.37 1555.58 562.612C1543.57 567.994 1531.04 572.578 1518.12 576.321C1504.01 580.505 1489.74 584.433 1475.56 588.47C1474.83 588.654 1474.11 588.801 1473.41 589.039C1473.15 589.088 1472.9 589.184 1472.69 589.318C1472.48 589.453 1472.31 589.623 1472.19 589.817C1472.07 590.012 1472 590.225 1471.99 590.443C1471.98 590.66 1472.03 590.876 1472.14 591.076C1472.89 593.315 1473.72 595.536 1474.52 597.756C1478.23 608.205 1481.93 618.647 1485.62 629.084C1488.24 636.425 1490.82 643.894 1493.49 651.272C1498.2 664.265 1502.97 677.259 1507.7 690.252C1507.92 690.839 1508.08 691.445 1508.28 692.087C1509.14 694.418 1509.75 696.694 1506.2 697.997C1504.6 700.823 1501.57 701.116 1498.24 700.97C1496.14 700.97 1494.01 700.97 1491.91 700.97C1490.09 700.992 1488.29 700.586 1486.75 699.802C1485.21 699.017 1483.97 697.887 1483.2 696.547C1482.22 695.038 1481.36 693.481 1480.62 691.885C1477.8 684.801 1475.04 677.699 1472.34 670.578C1470.33 665.201 1468.43 659.806 1466.55 654.41C1463.52 645.711 1460.88 636.938 1458.41 628.148C1455.83 618.996 1453.25 609.82 1450.65 600.619C1450.29 599.316 1450.18 597.958 1449.75 596.674C1449.32 595.389 1448.75 595.114 1447.1 595.481C1442.76 596.435 1438.42 597.481 1434.08 598.454C1425.99 600.358 1417.77 601.884 1409.47 603.024C1401.76 604.015 1394.09 605.207 1386.24 605.685C1381.72 605.96 1377.19 606.364 1372.81 606.712C1367.39 607.034 1361.96 607.034 1356.54 606.712C1352.77 606.765 1349.02 606.138 1345.57 604.877C1341.33 603.059 1337.29 600.947 1333.5 598.564C1330.85 596.727 1328.81 594.379 1327.57 591.737C1324.36 585.538 1322.13 579.031 1320.94 572.375C1320.08 567.805 1319.29 563.199 1318.52 558.629C1318.09 556.17 1319.16 553.784 1319.25 551.288C1319.29 550.926 1319.49 550.587 1319.81 550.334C1322.53 548.499 1325.11 546.315 1329 546.058C1329.45 546.058 1329.9 546.058 1330.35 546.058C1337.14 545.911 1343.92 545.269 1350.55 544.627C1351.6 544.562 1352.65 544.562 1353.69 544.627C1358.99 544.828 1364.19 543.837 1369.53 543.727C1371.77 543.533 1373.99 543.208 1376.18 542.755C1373.24 542.388 1371.27 542.076 1369.28 541.892C1365.09 541.525 1360.86 541.342 1356.73 540.828C1352.59 540.314 1347.68 540.02 1343.27 539.635C1339.13 539.286 1334.99 538.68 1330.76 538.625C1325.04 538.478 1319.37 537.694 1313.91 536.295C1307.13 534.661 1303.35 529.982 1303.01 524.072C1302.94 520.989 1303.31 517.909 1304.12 514.896C1305.8 507.948 1307.92 501.075 1310.47 494.305C1310.92 493.02 1311.69 491.809 1312.26 490.542C1313.43 488.169 1315.54 486.18 1318.25 484.89C1320.02 483.867 1322.08 483.22 1324.24 483.009C1326.39 482.797 1328.58 483.027 1330.6 483.679C1339.49 485.973 1348.45 488.083 1357.18 490.781C1358.74 491.258 1360.3 491.717 1361.7 492.304C1363.3 492.996 1365.11 493.314 1366.93 493.222C1367.13 493.515 1367.31 493.809 1367.76 493.405L1367.42 492.763Z" fill="#8D77AB"/>
<g opacity="0.75">
<path d="M1460.18 223.741C1462.18 223.88 1464.19 223.899 1466.17 224.16C1469.56 224.653 1470.79 226.338 1471 230.72C1471.01 232.121 1470.92 233.524 1470.71 234.91C1470.51 236.583 1470.27 238.246 1470 239.902C1469.9 240.595 1469.73 241.272 1469.49 241.919C1469.03 243.114 1468.27 243.834 1467.1 243.712C1466.16 243.646 1465.22 243.58 1464.28 243.439C1460.6 242.995 1456.92 242.453 1453.23 242.119C1448.7 241.716 1444.17 241.3 1439.61 241.225C1433.05 241.196 1426.49 241.957 1420.03 243.497C1417.25 244.128 1414.46 244.63 1411.76 245.884C1407.27 247.988 1403.13 251.05 1399.54 254.915C1395.01 259.629 1391.92 265.99 1390.78 272.958C1388.84 284.413 1390.2 295.272 1395.47 305.131C1399 311.794 1403.78 317.377 1409.45 321.455C1418.2 327.811 1427.64 332.771 1437.53 336.212C1441.74 337.67 1445.98 339.001 1450.23 340.287C1452.05 340.838 1453.92 341.127 1455.76 341.569C1456.89 341.846 1457.42 342.523 1457.39 343.876C1457.32 347.028 1457.23 350.191 1456.42 353.258C1456.02 354.776 1455.54 355.254 1454.29 355.376C1450.16 355.768 1446.01 355.996 1441.92 355.407C1438.53 354.926 1435.16 354.196 1431.85 353.36C1428.7 352.558 1425.58 351.595 1422.5 350.502C1417.42 348.704 1412.83 345.662 1408.31 342.485C1397.84 335.117 1389.72 324.96 1383.52 312.611C1380.45 306.54 1378.66 299.656 1378.29 292.526C1377.97 286.647 1377.71 280.797 1378.34 274.915C1379.73 261.945 1384.62 251.267 1393.47 243.157C1400.81 236.436 1409.09 232.078 1417.82 228.844C1423.24 226.768 1428.8 225.261 1434.42 224.341C1438.23 223.753 1442.06 223.462 1445.89 223.183C1448.47 222.998 1451.08 222.994 1453.67 223.041C1455.85 223.083 1458.02 223.346 1460.19 223.498L1460.18 223.741Z" fill="#FEA57D"/>
<path d="M1450.03 334.423C1443.74 334.303 1437.65 332.225 1431.58 330.068C1426.46 328.303 1421.58 325.738 1417.05 322.44C1408.82 316.34 1402.45 308.294 1398.9 297.381C1394.08 282.505 1398.08 266.264 1408.33 256.792C1411.99 253.461 1416.22 251.137 1420.69 249.992C1428.27 247.878 1436.08 247.427 1443.73 248.66C1449.2 249.561 1454.66 250.588 1460.12 251.551C1461.4 251.78 1462.68 251.98 1463.94 252.295C1465.2 252.61 1465.78 253.552 1465.77 255.133C1465.73 258.957 1464.91 262.633 1464.21 266.358C1463.9 267.965 1462.87 268.666 1461.62 268.869C1460.5 269.043 1459.38 269.124 1458.26 269.111C1451.47 269.084 1444.69 268.912 1437.9 269.014C1432.95 269.08 1427.99 269.524 1423.29 271.888C1421.2 272.94 1419.16 274.094 1417.47 275.988C1413.71 280.22 1412.98 285.281 1414.37 290.891C1415.39 295.013 1417.6 298.544 1420.62 300.871C1426.37 305.502 1432.67 309.099 1439.33 311.548C1444.37 313.342 1449.52 314.72 1454.61 316.32C1455.64 316.586 1456.64 317.002 1457.57 317.557C1458.23 317.982 1458.72 318.678 1458.97 319.516C1459.73 323.318 1459.85 327.276 1459.33 331.171C1459.28 332.027 1458.96 332.836 1458.45 333.452C1457.93 334.068 1457.25 334.45 1456.53 334.529C1455.83 334.663 1455.13 334.723 1454.42 334.707C1453 334.666 1451.6 334.533 1450.03 334.423Z" fill="#ECC889"/>
<path d="M1433.39 288.15C1433.83 289.588 1434.82 290.111 1435.7 290.719C1439.41 293.258 1443.42 294.975 1447.46 296.612C1450.72 297.939 1453.98 299.266 1457.22 300.644C1458.85 301.34 1459.24 302.089 1459.15 304.071C1459.11 305.618 1459 307.163 1458.82 308.7C1458.54 310.879 1457.09 312.01 1455.32 311.439C1448.08 309.112 1440.93 306.519 1434.18 302.627C1430.33 300.404 1426.7 297.795 1423.63 294.214C1422.75 293.209 1422.01 292.045 1421.43 290.762C1420.25 287.999 1421.17 285.44 1422.51 283.057C1424.36 279.79 1427.08 277.962 1430.12 276.709C1432.95 275.547 1435.9 275.212 1438.84 274.993C1446.4 274.411 1453.76 275.856 1461.03 277.877C1462.87 278.389 1463.38 279.204 1463.12 281.442C1462.86 283.529 1462.45 285.588 1462.09 287.65C1462 288.251 1461.74 288.802 1461.36 289.211C1460.97 289.619 1460.48 289.858 1459.97 289.887C1459.21 289.984 1458.44 289.966 1457.68 289.831C1454.37 289.239 1451.07 288.549 1447.76 287.975C1444.45 287.4 1441.25 286.828 1437.98 286.465C1437.17 286.331 1436.33 286.413 1435.54 286.704C1434.74 286.995 1434.01 287.489 1433.39 288.15V288.15Z" fill="#BBBEA0"/>
</g>
<path opacity="0.69" d="M195.217 451.725C182.397 446.569 169.846 449.177 158.274 455.798C145.613 463.06 133.642 472.968 122.818 482.61C113.832 490.658 107.911 497.831 108.001 510.159C108.181 534.757 140.801 536.538 157.655 529.217C171.094 523.314 182.077 512.235 192.89 502.77C201.877 494.899 211.602 487.372 212.97 474.847C213.01 474.543 213.01 474.235 212.97 473.932C212.98 473.834 212.98 473.735 212.97 473.637C212.69 462.725 205.002 455.651 195.217 451.725ZM164.953 504.364C158.134 510.267 150.975 516.171 142.757 520.106C136.457 523.186 129.967 526.108 127.481 518.011C122.608 502.14 139.283 490.619 149.926 482.01C156.536 476.657 163.496 471.728 170.485 466.877C174.46 464.02 178.78 461.661 183.345 459.852C191.822 456.586 193.839 463.335 194.158 469.465C192.301 484.873 175.847 494.879 164.924 504.364H164.953Z" fill="#D9AD99"/>
<g clip-path="url(#clip0_34_264)">
<path fill-rule="evenodd" clip-rule="evenodd" d="M1140.13 456.911C1139.69 456.549 1139.16 456.258 1138.63 455.968C1135.94 454.275 1132.83 452.267 1129.66 451.525C1125.47 450.58 1122.38 451.451 1120.15 453.357C1117.02 456.041 1115.73 461.091 1116.42 465.957C1117.08 470.795 1119.57 475.454 1123.5 477.599C1126.16 479.088 1129.56 479.42 1133.57 477.787C1138.13 475.962 1140.73 472.142 1141.99 467.562C1142.5 465.809 1142.71 464.038 1142.85 462.172C1144.23 463.317 1145.63 464.475 1147.04 465.652C1151.52 469.633 1155.68 474.265 1159.28 479.05C1164.1 485.312 1167.72 492.149 1170.08 499.696C1170.35 500.353 1171.1 500.735 1171.77 500.529C1172.45 500.323 1172.83 499.589 1172.64 498.862C1170.17 491.025 1166.45 483.891 1161.42 477.391C1157.64 472.543 1153.44 467.704 1148.77 463.66C1146.81 462.004 1144.89 460.384 1142.9 458.855C1142.74 454.787 1141.94 450.794 1140.9 447.699C1133.65 427.248 1108.5 412.629 1089.18 404.798C1088.52 404.513 1087.78 404.814 1087.5 405.494C1087.22 406.174 1087.56 406.926 1088.23 407.21C1106.92 414.798 1131.4 428.777 1138.39 448.589C1139.21 450.919 1139.84 453.86 1140.13 456.911ZM1140.24 460.251C1139.33 459.501 1138.34 458.826 1137.27 458.224C1134.74 456.726 1131.97 454.785 1129.11 454.071C1125.95 453.349 1123.58 453.899 1121.93 455.311C1119.3 457.57 1118.48 461.666 1119.07 465.574C1119.6 469.579 1121.5 473.53 1124.79 475.258C1126.88 476.395 1129.46 476.608 1132.54 475.374C1136.34 473.83 1138.45 470.602 1139.43 466.874C1140.04 464.74 1140.28 462.485 1140.24 460.251Z" fill="#FDE646"/>
<path fill-rule="evenodd" clip-rule="evenodd" d="M1088.05 405.479C1088.72 405.424 1089.5 405.514 1090.28 405.605C1091.82 405.753 1093.32 406.021 1094.39 405.935C1100.82 405.495 1108.52 404.887 1114.54 402.436C1115.18 402.189 1115.52 401.409 1115.24 400.738C1114.96 400.067 1114.23 399.705 1113.5 400.022C1107.79 402.325 1100.42 402.833 1094.17 403.32C1093.08 403.368 1091.26 403.054 1089.7 402.885C1088.34 402.778 1087.1 402.82 1086.17 403.235C1085.63 403.434 1085.02 404.228 1085.31 405.583C1085.76 407.467 1088.26 411.64 1088.48 412.066C1090.68 416.376 1092.52 420.252 1091.27 425.183C1091.13 425.86 1091.58 426.564 1092.21 426.806C1092.92 426.979 1093.67 426.52 1093.81 425.842C1095.2 420.243 1093.38 415.707 1090.84 410.822C1090.62 410.559 1089.1 408.078 1088.32 406.129C1088.26 405.894 1088.11 405.712 1088.05 405.479Z" fill="#FDE646"/>
</g>
<path d="M285 404C302.121 404 316 391.688 316 376.5C316 361.312 302.121 349 285 349C267.879 349 254 361.312 254 376.5C254 391.688 267.879 404 285 404Z" fill="#EAEEC2"/>
<path d="M285 386.026C290.931 386.026 295.739 381.761 295.739 376.5C295.739 371.239 290.931 366.974 285 366.974C279.069 366.974 274.261 371.239 274.261 376.5C274.261 381.761 279.069 386.026 285 386.026Z" fill="#ECAE3B"/>
<path d="M1206.96 254.073C1202.4 249.44 1191.28 252.837 1179.5 261.63C1167.72 252.837 1156.6 249.44 1152.04 254.073C1147.48 258.707 1150.82 270.019 1159.47 282C1150.82 293.981 1147.48 305.293 1152.04 309.927C1156.6 314.56 1167.72 311.163 1179.5 302.37C1191.28 311.163 1202.4 314.56 1206.96 309.927C1211.52 305.293 1208.18 293.981 1199.53 282C1208.18 270.019 1211.52 258.707 1206.96 254.073Z" fill="#565656"/>
<defs>
<filter id="filter0_f_34_264" x="-122" y="118" width="668" height="660" filterUnits="userSpaceOnUse" color-interpolation-filters="sRGB">
<feFlood flood-opacity="0" result="BackgroundImageFix"/>
<feBlend mode="normal" in="SourceGraphic" in2="BackgroundImageFix" result="shape"/>
<feGaussianBlur stdDeviation="50" result="effect1_foregroundBlur_34_264"/>
</filter>
<filter id="filter1_f_34_264" x="198.9" y="0.900002" width="640.2" height="632.2" filterUnits="userSpaceOnUse" color-interpolation-filters="sRGB">
<feFlood flood-opacity="0" result="BackgroundImageFix"/>
<feBlend mode="normal" in="SourceGraphic" in2="BackgroundImageFix" result="shape"/>
<feGaussianBlur stdDeviation="43.05" result="effect1_foregroundBlur_34_264"/>
</filter>
<filter id="filter2_f_34_264" x="525" y="168" width="668" height="660" filterUnits="userSpaceOnUse" color-interpolation-filters="sRGB">
<feFlood flood-opacity="0" result="BackgroundImageFix"/>
<feBlend mode="normal" in="SourceGraphic" in2="BackgroundImageFix" result="shape"/>
<feGaussianBlur stdDeviation="50" result="effect1_foregroundBlur_34_264"/>
</filter>
<filter id="filter3_f_34_264" x="688.9" y="68.9" width="868.2" height="699.2" filterUnits="userSpaceOnUse" color-interpolation-filters="sRGB">
<feFlood flood-opacity="0" result="BackgroundImageFix"/>
<feBlend mode="normal" in="SourceGraphic" in2="BackgroundImageFix" result="shape"/>
<feGaussianBlur stdDeviation="43.05" result="effect1_foregroundBlur_34_264"/>
</filter>
<filter id="filter4_f_34_264" x="-356.1" y="195.9" width="640.2" height="632.2" filterUnits="userSpaceOnUse" color-interpolation-filters="sRGB">
<feFlood flood-opacity="0" result="BackgroundImageFix"/>
<feBlend mode="normal" in="SourceGraphic" in2="BackgroundImageFix" result="shape"/>
<feGaussianBlur stdDeviation="43.05" result="effect1_foregroundBlur_34_264"/>
</filter>
<clipPath id="clip0_34_264">
<rect width="130" height="130" fill="white" transform="translate(1038 443.562) rotate(-40)"/>
</clipPath>
</defs>
</svg>
