<svg width="160" height="20" viewBox="0 0 163 28" fill="none" xmlns="http://www.w3.org/2000/svg">
<path fill-rule="evenodd" clip-rule="evenodd" d="M119.555 11.5109C126.558 8.98058 134.643 6.46243 142.421 5.83366C149.069 5.29699 155.49 6.13054 160.746 9.6771C161.487 10.1765 162.415 9.83317 162.816 8.90904C163.217 7.98568 162.941 6.82934 162.2 6.32922C156.466 2.46142 149.475 1.44974 142.224 2.03589C134.306 2.67532 126.075 5.21024 118.931 7.7771C118.102 5.68449 116.386 3.73346 113.363 2.29398C108.719 0.0826168 102.378 0.110025 95.6982 1.35615C86.0102 3.16254 75.5887 7.47031 68.8882 10.5312C68.6133 10.656 68.2041 10.8547 67.7032 11.1166C67.5505 10.6964 67.3795 10.2823 67.1901 9.87577C65.5471 6.33302 62.6396 3.46853 59.6772 2.44545C40.8889 -4.04173 18.961 3.73118 1.10722 10.057C0.300964 10.344 -0.169342 11.3975 0.0566559 12.4076C0.288757 13.4178 1.13165 14.0047 1.94402 13.7177C19.297 7.56849 40.6018 -0.189898 58.8649 6.11382C61.1126 6.89027 63.2993 9.09172 64.5453 11.7804C64.6858 12.0803 64.808 12.3871 64.924 12.6984C62.4625 14.2186 59.5673 16.3378 58.0097 18.6063C56.4094 20.9318 56.0124 23.4142 57.405 25.7588C58.6022 27.7631 60.4163 27.9336 62.3037 26.8945C64.3377 25.7816 66.4327 23.1798 67.1107 21.9588C68.3812 19.6781 68.7843 17.2041 68.5522 14.7918C69.1508 14.4766 69.637 14.2422 69.9369 14.1052C76.4908 11.112 86.6772 6.88719 96.1502 5.12038C102.245 3.98311 108.035 3.83165 112.273 5.8489C114.08 6.70984 115.274 7.71464 115.923 8.88084C114.644 9.35737 113.41 9.8263 112.232 10.2739C109.902 11.1592 105.05 12.6246 101.584 15.2363C98.8273 17.313 96.9583 20.1379 97.067 23.6791C97.1226 25.4984 97.9673 26.7126 99.3117 27.3931C101.321 28.4094 104.795 27.9176 106.089 27.5751C110.012 26.5383 115.249 22.2465 117.84 17.4104C118.875 15.4807 119.49 13.4619 119.555 11.5109ZM116.332 12.6999C115.223 13.1156 114.152 13.5236 113.123 13.9149C110.947 14.7416 106.401 16.0547 103.164 18.4937C101.45 19.7847 100.051 21.3315 100.119 23.5337C100.124 23.705 100.26 23.7537 100.381 23.8237C100.567 23.9311 100.78 24.0049 101.007 24.0628C102.545 24.454 104.61 24.0757 105.455 23.8519C108.747 22.9818 113.127 19.3546 115.301 15.2965C115.76 14.4393 116.126 13.5662 116.332 12.6999ZM65.5348 16.5441C64.0995 17.4644 62.5969 18.5774 61.4119 19.7885C60.7828 20.4317 60.2514 21.0932 59.9154 21.7798C59.6345 22.3477 59.5246 22.9293 59.8605 23.4911C59.9949 23.7187 60.1964 23.7233 60.4041 23.6806C60.624 23.635 60.85 23.5375 61.076 23.4119C62.5663 22.5944 64.1055 20.6845 64.6003 19.7885C65.1806 18.7494 65.4677 17.6502 65.5348 16.5441Z" fill="url(#paint0_linear_7_375)"/>
<defs>
<linearGradient id="paint0_linear_7_375" x1="0" y1="14" x2="163" y2="14" gradientUnits="userSpaceOnUse">
<stop stop-color="#8D77AB"/>
<stop offset="1" stop-color="#7FC24A"/>
</linearGradient>
</defs>
</svg>
