<svg width="125" height="38" viewBox="0 0 125 38" fill="none" xmlns="http://www.w3.org/2000/svg">
<path d="M43.16 31V8.65H52.58C54.06 8.65 55.32 8.91 56.36 9.43C57.42 9.93 58.23 10.65 58.79 11.59C59.37 12.51 59.66 13.63 59.66 14.95C59.66 15.97 59.38 16.93 58.82 17.83C58.28 18.71 57.41 19.44 56.21 20.02V18.13C57.31 18.55 58.18 19.07 58.82 19.69C59.46 20.31 59.91 21 60.17 21.76C60.43 22.52 60.56 23.32 60.56 24.16C60.56 26.3 59.85 27.98 58.43 29.2C57.03 30.4 55.08 31 52.58 31H43.16ZM47.24 27.4H53C54.06 27.4 54.9 27.11 55.52 26.53C56.16 25.93 56.48 25.14 56.48 24.16C56.48 23.18 56.16 22.39 55.52 21.79C54.9 21.19 54.06 20.89 53 20.89H47.24V27.4ZM47.24 17.32H52.79C53.63 17.32 54.3 17.08 54.8 16.6C55.3 16.1 55.55 15.46 55.55 14.68C55.55 13.9 55.3 13.28 54.8 12.82C54.3 12.36 53.63 12.13 52.79 12.13H47.24V17.32ZM63.5722 31V14.68H67.5022V31H63.5722ZM63.5722 12.85V8.65H67.5022V12.85H63.5722ZM80.0408 31.36C78.8608 31.36 77.7708 31.13 76.7708 30.67C75.7908 30.19 75.0108 29.51 74.4308 28.63L74.8208 27.85V31H71.1308V8.29H75.0608V17.92L74.4608 17.11C75.0208 16.23 75.7808 15.55 76.7408 15.07C77.7008 14.57 78.8108 14.32 80.0708 14.32C81.6108 14.32 83.0008 14.7 84.2408 15.46C85.4808 16.22 86.4608 17.24 87.1808 18.52C87.9208 19.8 88.2908 21.24 88.2908 22.84C88.2908 24.42 87.9308 25.86 87.2108 27.16C86.4908 28.46 85.5108 29.49 84.2708 30.25C83.0308 30.99 81.6208 31.36 80.0408 31.36ZM79.5908 27.76C80.4908 27.76 81.2908 27.55 81.9908 27.13C82.6908 26.71 83.2308 26.13 83.6108 25.39C84.0108 24.65 84.2108 23.8 84.2108 22.84C84.2108 21.88 84.0108 21.04 83.6108 20.32C83.2308 19.58 82.6908 19 81.9908 18.58C81.2908 18.14 80.4908 17.92 79.5908 17.92C78.7308 17.92 77.9508 18.13 77.2508 18.55C76.5708 18.97 76.0308 19.56 75.6308 20.32C75.2508 21.06 75.0608 21.9 75.0608 22.84C75.0608 23.8 75.2508 24.65 75.6308 25.39C76.0308 26.13 76.5708 26.71 77.2508 27.13C77.9508 27.55 78.7308 27.76 79.5908 27.76ZM91.287 31V8.29H95.217V31H91.287ZM98.8456 31V14.68H102.776V31H98.8456ZM98.8456 12.85V8.65H102.776V12.85H98.8456ZM114.384 31.36C112.784 31.36 111.324 30.99 110.004 30.25C108.704 29.51 107.664 28.5 106.884 27.22C106.124 25.94 105.744 24.48 105.744 22.84C105.744 21.2 106.124 19.74 106.884 18.46C107.664 17.18 108.704 16.17 110.004 15.43C111.304 14.69 112.764 14.32 114.384 14.32C115.984 14.32 117.434 14.69 118.734 15.43C120.034 16.17 121.064 17.18 121.824 18.46C122.604 19.72 122.994 21.18 122.994 22.84C122.994 24.48 122.604 25.94 121.824 27.22C121.044 28.5 120.004 29.51 118.704 30.25C117.404 30.99 115.964 31.36 114.384 31.36ZM114.384 27.76C115.264 27.76 116.034 27.55 116.694 27.13C117.374 26.71 117.904 26.13 118.284 25.39C118.684 24.63 118.884 23.78 118.884 22.84C118.884 21.88 118.684 21.04 118.284 20.32C117.904 19.58 117.374 19 116.694 18.58C116.034 18.14 115.264 17.92 114.384 17.92C113.484 17.92 112.694 18.14 112.014 18.58C111.334 19 110.794 19.58 110.394 20.32C110.014 21.04 109.824 21.88 109.824 22.84C109.824 23.78 110.014 24.63 110.394 25.39C110.794 26.13 111.334 26.71 112.014 27.13C112.694 27.55 113.484 27.76 114.384 27.76Z" fill="black"/>
<rect y="5" width="34" height="31" rx="6" fill="#444444"/>
<path d="M25.4471 12.5874C24.2115 11.2746 21.195 12.2372 18 14.7285C14.805 12.2372 11.7885 11.2746 10.5529 12.5874C9.31727 13.9003 10.2232 17.1053 12.568 20.5C10.2232 23.8947 9.31727 27.0997 10.5529 28.4126C11.7885 29.7254 14.805 28.7628 18 26.2715C21.195 28.7628 24.2115 29.7254 25.4471 28.4126C26.6827 27.0997 25.7768 23.8947 23.432 20.5C25.7768 17.1053 26.6827 13.9003 25.4471 12.5874Z" fill="white"/>
</svg>
