<svg width="309" height="329" viewBox="0 0 309 329" fill="none" xmlns="http://www.w3.org/2000/svg">
<g clip-path="url(#clip0_50_27)">
<path fill-rule="evenodd" clip-rule="evenodd" d="M13.1345 28.3236C12.9183 28.1338 12.7006 27.944 12.4813 27.7556C10.2457 25.8381 8.02742 23.9185 5.94613 21.8622C5.44183 21.3643 4.495 20.3981 3.54421 19.9009C2.86417 19.5453 2.16035 19.3965 1.51673 19.4702C1.10664 19.517 0.507376 19.7018 0.206543 20.4052C0.155876 20.5235 0.0957233 20.7268 0.0719733 20.986C0.0339733 21.4053 0.0711635 22.1576 0.0830385 22.2617C0.249288 23.779 0.415533 25.2297 0.720324 26.7306C1.00057 28.1119 1.19215 29.5037 1.49377 30.8829C1.94502 32.9462 2.52613 34.9324 3.37321 36.8973C3.6875 37.6269 4.60504 37.9903 5.42046 37.7091C6.23508 37.4278 6.642 36.6076 6.32771 35.878C5.54791 34.0682 5.01671 32.2393 4.60188 30.3389C4.30263 28.9725 4.11341 27.5926 3.83553 26.2241C3.65503 25.3338 3.52677 24.4618 3.41752 23.5821L3.59881 23.7641C5.73077 25.87 8.0005 27.837 10.29 29.8005C11.1466 30.5358 11.9739 31.2923 12.8439 32.0155C12.9144 32.1076 13.2397 32.5297 13.3997 32.6742C13.6657 32.9151 13.953 33.0496 14.2032 33.1162C14.8389 33.2862 15.4841 33.2232 16.0478 32.5857C16.4698 32.1083 16.7128 31.368 16.6946 30.484C16.67 29.2693 16.1547 27.6678 16.0454 26.9297C15.3535 22.2596 14.2341 17.608 13.9364 12.8976C13.8873 12.117 13.1392 11.5191 12.2668 11.5631C11.3944 11.6077 10.7254 12.2771 10.7753 13.0576C11.0769 17.8389 12.2035 22.5614 12.9057 27.3023C12.9437 27.5544 13.0339 27.9135 13.1345 28.3236Z" fill="black"/>
<path fill-rule="evenodd" clip-rule="evenodd" d="M26.9693 8.96527C25.1738 9.39098 23.3751 9.76214 21.9327 10.8657C20.4238 12.021 19.6567 13.6991 19.3835 15.5691C19.0352 17.9547 19.5023 20.6613 19.792 22.5901C19.9424 23.5888 20.0066 24.9807 20.3319 26.2139C20.6122 27.2743 21.0895 28.2241 21.8171 28.8893C22.9603 29.9341 24.7146 30.0396 26.514 29.3879C28.593 28.635 30.6632 26.8974 31.2261 25.8845C31.6156 25.1847 31.2965 24.3333 30.5135 23.9855C29.7314 23.637 28.7806 23.9224 28.3911 24.6223C28.0341 25.2647 26.6447 26.284 25.3258 26.7621C25.0313 26.8684 24.7399 26.9477 24.4644 26.9675C24.3211 26.9782 24.1778 26.9966 24.0805 26.9081C23.6031 26.471 23.4353 25.7606 23.2967 25.043C23.1028 24.0429 23.0489 22.9981 22.931 22.2118C22.6713 20.487 22.2122 18.0695 22.5233 15.936C22.6903 14.792 23.0679 13.726 23.9918 13.0191C25.0637 12.1988 26.4444 12.021 27.7799 11.7044C28.6246 11.5047 29.1289 10.7283 28.9049 9.97252C28.6816 9.21673 27.814 8.76552 26.9693 8.96527Z" fill="black"/>
<path fill-rule="evenodd" clip-rule="evenodd" d="M26.8479 16.4303C25.457 17.1081 23.9702 17.8051 22.4795 18.2839C21.657 18.5481 21.2287 19.3599 21.5232 20.0959C21.8185 20.8318 22.7257 21.215 23.5482 20.9508C25.1901 20.4238 26.8313 19.6652 28.3624 18.9193C29.1295 18.5453 29.4137 17.684 28.9957 16.9976C28.5777 16.3105 27.6158 16.057 26.8479 16.4303Z" fill="black"/>
<path fill-rule="evenodd" clip-rule="evenodd" d="M45.9701 17.1823C44.8143 15.9313 43.5927 14.7003 42.3023 13.5754C42.197 13.4841 40.8955 12.525 40.1221 12.1666C39.6004 11.925 39.138 11.8811 38.8673 11.9045C38.0796 11.9725 37.599 12.3543 37.4019 13.0074C37.2135 13.6335 37.1454 14.2859 37.1454 14.9517C35.9745 12.9875 34.9034 10.9674 34.2527 8.84023C34.1988 8.66456 34.1553 8.58239 34.1482 8.56751C33.9289 8.13401 33.6177 7.98665 33.5069 7.92857C32.9622 7.6424 32.4714 7.6906 32.0574 7.85706C32.0067 7.8769 30.8904 8.32031 31.1572 9.45293C31.1786 9.54431 31.3607 10.1953 31.4138 10.4495C31.4605 10.6705 31.5618 10.8696 31.7035 11.0382C32.7944 13.8417 34.4633 16.4902 36.0648 19.0763C36.4108 19.6352 36.6807 20.2111 36.8588 20.8295C36.9111 21.0101 36.9325 21.4188 36.9784 21.6192C37.0567 21.9585 37.2119 22.1859 37.3109 22.3021C37.8254 22.907 38.4596 22.9686 39.0446 22.8135C39.2948 22.7476 39.7959 22.5967 40.1007 21.9472C40.7863 20.488 40.7087 18.8766 40.51 17.2531C40.4514 16.7728 40.3786 16.2926 40.3343 15.818C41.7426 17.0703 43.0607 18.4516 44.2997 19.8321C44.4359 19.9837 45.815 21.3635 46.1815 21.569C47.0982 22.0846 47.81 21.6972 48.1148 21.4662C48.5795 21.1135 48.9452 20.5079 49.094 19.7365C49.2856 18.7385 49.1344 17.365 49.1194 16.8125C49.0188 13.0937 48.8684 9.20643 47.935 5.57551C47.7395 4.81335 46.8892 4.33732 46.0374 4.51228C45.1856 4.68724 44.6536 5.44872 44.8491 6.21018C45.735 9.65835 45.8577 13.3509 45.9535 16.8812C45.9559 16.9627 45.9622 17.0647 45.9701 17.1823Z" fill="black"/>
<path fill-rule="evenodd" clip-rule="evenodd" d="M52.2968 4.63346C52.8708 7.11617 53.4455 9.57619 53.8208 12.129C53.9348 12.9047 54.7304 13.4515 55.5973 13.3495C56.4633 13.2475 57.0745 12.5356 56.9605 11.76C56.4317 8.15953 55.5166 4.74113 54.7502 1.18955C54.4549 -0.183202 52.9967 0.00877602 52.9072 0.0229427C52.7101 0.0541094 51.6358 0.258816 51.6002 1.38436C51.5978 1.45307 51.6493 1.93895 51.658 2.12736C51.677 2.55874 51.6674 2.98022 51.6429 3.4123C51.6144 3.91026 51.8765 4.36146 52.2968 4.63346Z" fill="black"/>
<path fill-rule="evenodd" clip-rule="evenodd" d="M56.3946 19.274C56.5553 18.8362 56.4737 18.3362 56.1286 17.9487C55.5831 17.3374 54.5864 17.2375 53.9032 17.7256C53.2722 18.1761 53.1543 18.725 53.239 19.3965C53.3371 20.1736 54.1225 20.7331 54.9909 20.6446C55.785 20.5645 56.3756 19.9695 56.3946 19.274Z" fill="black"/>
<path fill-rule="evenodd" clip-rule="evenodd" d="M26.5052 46.6015C26.3437 46.2955 26.2139 46.0539 26.183 46.0022C24.7121 43.5408 23.1161 41.1119 21.3784 38.7935C20.8915 38.144 19.9075 37.9704 19.1815 38.4061C18.4556 38.8417 18.2616 39.7222 18.7485 40.3717C20.4276 42.6115 21.9689 44.9596 23.3908 47.3382C23.4992 47.5195 24.222 49.131 24.7382 49.8032C25.2061 50.4116 25.7935 50.6291 26.1299 50.6737C26.6643 50.7446 27.5003 50.5731 28.1788 49.7628C29.0647 48.7053 30.2133 45.8797 30.4026 45.4108C30.7493 44.5481 31.043 43.6428 31.3154 42.7623C31.8315 41.0921 32.1284 39.3921 32.3936 37.6793C32.5139 36.9044 31.9083 36.189 31.0423 36.0813C30.177 35.9744 29.3766 36.5163 29.257 37.2905C29.0108 38.8793 28.7425 40.4574 28.2635 42.0065C28.0117 42.819 27.7426 43.6556 27.4227 44.4517C27.3262 44.6904 26.9509 45.6764 26.5052 46.6015Z" fill="black"/>
</g>
<path d="M213.679 206.786C213.679 206.786 204.273 131.031 217.955 94.8281C231.643 58.6198 251.533 36.3437 271.768 39.5573C292.007 42.7656 274.403 91.9635 253.898 134.177C242.877 156.859 222.648 197.651 221.653 207.922C220.663 218.198 214.549 215 213.679 206.786Z" fill="url(#paint0_linear_50_27)" stroke="#797166" stroke-width="1.11039" stroke-linecap="round" stroke-linejoin="round"/>
<path d="M217.564 211.406C217.564 211.182 221.002 124.99 249.898 82.1407L217.564 211.406Z" fill="url(#paint1_linear_50_27)"/>
<path d="M217.564 211.406C217.564 211.182 221.002 124.99 249.898 82.1407" stroke="#797166" stroke-width="1.11039" stroke-linecap="round" stroke-linejoin="round"/>
<path d="M206.83 135.078C206.174 135.771 174.565 117.589 204.747 76.4011C204.747 76.4011 237.341 102.74 206.83 135.078Z" fill="url(#paint2_linear_50_27)" stroke="url(#paint3_linear_50_27)" stroke-width="1.11039" stroke-linecap="round" stroke-linejoin="round"/>
<path d="M204.752 94.3074L206.83 135.078L204.752 94.3074Z" fill="#A5FFA9"/>
<path d="M204.752 94.3074L206.83 135.078" stroke="#797166" stroke-width="1.11039" stroke-linecap="round" stroke-linejoin="round"/>
<path d="M198.648 102.432L205.388 106.766L212.2 100.672" stroke="#797166" stroke-width="1.11039" stroke-linecap="round" stroke-linejoin="round"/>
<path d="M199.315 114.208L206.054 118.541L212.867 112.448" stroke="#797166" stroke-width="1.11039" stroke-linecap="round" stroke-linejoin="round"/>
<path d="M288.299 111.406L231.919 189.484C231.919 189.484 198.695 164.198 201.189 149.427C203.684 134.651 218.518 135.969 225.299 137.661C232.08 139.359 224.929 110.953 241.257 105.974C257.585 100.99 259.841 118.365 262.117 121.031C264.387 123.693 273.554 85.0833 297.486 98.6823L288.299 111.406Z" fill="url(#paint4_linear_50_27)" stroke="#797166" stroke-width="1.11039" stroke-linecap="round" stroke-linejoin="round"/>
<path d="M288.299 111.406L231.919 189.484C231.919 189.484 266.372 213.073 279.611 206.057C292.851 199.037 286.934 185.37 283.195 179.469C279.45 173.563 308.664 171.417 308.257 154.349C307.851 137.281 290.643 140.609 287.398 139.286C284.158 137.969 317.924 117.125 297.486 98.6822L288.299 111.406Z" fill="url(#paint5_linear_50_27)" stroke="#797166" stroke-width="1.11039" stroke-linecap="round" stroke-linejoin="round"/>
<path d="M147.19 206.5C147.19 206.5 156.596 130.745 142.908 94.5417C129.226 58.3333 109.335 36.0573 89.101 39.2708C68.8614 42.4792 86.4656 91.6771 106.971 133.891C117.992 156.573 138.221 197.365 139.21 207.635C140.205 217.911 146.32 214.714 147.19 206.5Z" fill="url(#paint6_linear_50_27)" stroke="#797166" stroke-width="1.11039" stroke-linecap="round" stroke-linejoin="round"/>
<path d="M143.304 211.12C143.304 210.896 139.867 124.703 110.971 81.854L143.304 211.12Z" fill="url(#paint7_linear_50_27)"/>
<path d="M143.304 211.12C143.304 210.896 139.867 124.703 110.971 81.854" stroke="#797166" stroke-width="1.11039" stroke-linecap="round" stroke-linejoin="round"/>
<path d="M153.794 135.078C154.45 135.771 186.059 117.589 155.877 76.4011C155.877 76.4011 123.278 102.74 153.794 135.078Z" fill="url(#paint8_linear_50_27)" stroke="#797166" stroke-width="1.11039" stroke-linecap="round" stroke-linejoin="round"/>
<path d="M155.872 94.3074L153.794 135.078L155.872 94.3074Z" fill="#A5FFA9"/>
<path d="M155.872 94.3074L153.794 135.078" stroke="#797166" stroke-width="1.11039" stroke-linecap="round" stroke-linejoin="round"/>
<path d="M161.971 102.432L155.236 106.766L148.424 100.672" stroke="#797166" stroke-width="1.11039" stroke-linecap="round" stroke-linejoin="round"/>
<path d="M161.309 114.208L154.57 118.541L147.757 112.448" stroke="#797166" stroke-width="1.11039" stroke-linecap="round" stroke-linejoin="round"/>
<path d="M72.3248 111.406L128.705 189.485C128.705 189.485 161.929 164.198 159.434 149.427C156.94 134.651 142.106 135.969 135.325 137.662C128.544 139.359 135.695 110.953 119.367 105.974C103.038 100.99 100.783 118.365 98.5072 121.031C96.2363 123.693 87.0697 85.0833 63.1373 98.6823L72.3248 111.406Z" fill="url(#paint9_linear_50_27)" stroke="#797166" stroke-width="1.11039" stroke-linecap="round" stroke-linejoin="round"/>
<path d="M72.3249 111.406L128.705 189.485C128.705 189.485 94.252 213.073 81.0124 206.058C67.7728 199.037 73.6895 185.37 77.4291 179.469C81.1739 173.563 51.9603 171.417 52.3665 154.349C52.7728 137.281 69.9811 140.609 73.2259 139.287C76.4655 137.969 42.6999 117.125 63.1374 98.6823L72.3249 111.406Z" fill="url(#paint10_linear_50_27)" stroke="#797166" stroke-width="1.11039" stroke-linecap="round" stroke-linejoin="round"/>
<path d="M71.5801 285.828C71.5801 284.781 72.3874 284.375 73.6791 284.016C74.4812 283.729 74.5645 282.604 74.5645 281.151V265.797C74.5645 264.307 74.4812 263.219 73.7155 262.938C72.5072 262.693 71.5385 262.172 71.5385 261.042C71.5385 259.427 73.4343 258.906 76.6582 258.906C77.8666 258.906 79.0749 258.985 80.2885 258.985C81.8978 258.985 84.476 258.787 87.1374 258.787C94.1478 258.787 98.0593 261.766 98.0593 266.646C98.0593 270.11 95.8822 272.651 92.4187 273.938C95.5228 274.662 96.7312 276.839 97.9395 279.62C98.7832 281.557 99.2676 282.724 100.075 283.208C100.799 283.651 101.403 283.651 101.887 283.813C102.33 283.974 102.533 284.297 102.533 284.901C102.533 286.391 100.278 288.203 96.8926 288.203C91.8926 288.203 90.4447 284.5 89.4343 281.031C88.6687 278.333 87.903 275.953 85.3666 275.953H83.0645V281.151C83.0645 282.682 83.226 283.771 84.0332 284.016C85.528 284.297 86.4135 284.781 86.4135 285.787C86.4135 287.641 83.5489 288.167 78.7937 288.167C74.2416 288.167 71.5801 287.641 71.5801 285.828ZM85.2832 272.245C88.1843 272.245 89.6374 270.474 89.6374 267.61C89.6374 264.912 88.4291 262.735 85.528 262.735C84.6791 262.735 83.9551 262.938 83.4707 263.219C83.1478 263.458 83.0645 264.386 83.0645 265.719V272.125C83.752 272.203 84.476 272.245 85.2832 272.245Z" fill="#797166"/>
<path d="M102.611 278.089C102.611 271.521 107.528 266.844 113.736 266.844C119.58 266.844 122.846 270.755 122.846 274.099C122.846 276.115 121.637 277.406 119.419 277.406H109.705C110.309 280.266 112.325 281.958 115.429 281.958C117.523 281.958 118.976 281.234 120.184 280.349C120.669 280.026 121.153 279.74 121.637 279.74C122.44 279.74 122.966 280.266 122.966 281.396C122.966 282.359 122.481 283.573 121.596 284.698C120.023 286.714 117.039 288.49 112.971 288.49C106.846 288.49 102.611 284.177 102.611 278.089ZM113.617 274.786C115.669 274.703 116.559 273.979 116.559 272.729C116.559 271.24 115.471 269.948 113.617 269.948C111.278 269.948 109.705 271.964 109.502 274.865L113.617 274.786Z" fill="#797166"/>
<path d="M133.2 275.953C134.653 275.953 136.101 276.193 137.231 276.479V274.021C137.231 271.964 137.111 270.109 135.377 270.109C134.288 270.109 133.481 271.156 132.637 272.245C131.872 273.417 130.742 274.667 128.648 274.667C126.955 274.667 126.028 273.656 126.028 272.526C126.028 269.828 132.153 266.844 137.554 266.844C142.549 266.844 145.21 269.344 145.21 273.896V280.708C145.21 282.484 145.492 283.448 147.184 283.896C147.466 283.974 147.507 284.094 147.507 284.375C147.507 286.068 145.736 288.125 142.512 288.125C140.21 288.125 138.523 287.078 137.596 285.021C136.221 287.115 133.924 288.406 131.064 288.406C127.476 288.406 124.617 286.271 124.617 282.521C124.617 278.292 128.242 275.953 133.2 275.953ZM134.689 284.255C136.143 284.255 137.434 283.125 137.434 280.63V279.38C136.95 278.974 136.143 278.615 135.174 278.615C133.445 278.615 132.393 279.703 132.393 281.474C132.393 283.25 133.283 284.255 134.689 284.255Z" fill="#797166"/>
<path d="M148.877 277.891C148.877 270.875 153.028 266.844 158.789 266.844C160.924 266.844 162.622 267.448 163.83 268.255V266.042C163.83 264.667 163.304 263.422 162.58 263.177C161.408 262.854 160.643 262.25 160.643 261.443C160.643 260.76 160.966 260.276 161.731 259.833C163.867 258.661 167.736 257.859 169.471 257.859C171.606 257.859 171.768 259.188 171.768 261.766C171.768 263.177 171.726 264.87 171.726 266.844V280.547C171.726 281.797 171.929 283.005 172.455 283.167C173.502 283.49 174.023 284.016 174.023 284.781C174.023 285.385 173.742 285.87 173.059 286.312C171.205 287.521 167.82 288.286 166.289 288.286C164.231 288.286 164.07 286.958 164.07 284.417V283.974C162.82 286.51 160.2 288.406 157.018 288.406C152.262 288.406 148.877 284.094 148.877 277.891ZM160.445 283.573C162.46 283.573 163.95 281.516 163.95 276.641C163.908 271.76 162.539 269.99 160.565 269.99C158.346 269.99 157.096 272.083 157.096 276.802C157.096 281.635 158.471 283.573 160.445 283.573Z" fill="#797166"/>
<path d="M183.575 285.745C183.575 284.62 184.419 284.052 185.872 283.651C186.716 283.328 186.919 281.839 186.919 279.542V266.198C186.919 264.51 186.757 263.458 185.95 263.016C184.867 262.693 183.736 262.25 183.736 261C183.736 259.349 185.955 258.745 190.065 258.745C194.012 258.745 194.981 259.188 196.268 261.406C197.841 264.307 200.419 269.385 202.434 273.698C205.58 267.49 206.992 264.307 208.242 261.443C209.169 259.391 210.538 258.745 214.085 258.745C218.315 258.745 220.408 259.349 220.408 261C220.408 262.208 219.361 262.693 218.273 263.016C217.507 263.339 217.387 264.51 217.387 266.198V281.151C217.387 282.604 217.471 283.734 218.315 284.016C219.523 284.339 220.252 284.781 220.252 285.787C220.252 287.641 217.591 288.167 213.278 288.167C209.007 288.167 206.143 287.641 206.143 285.787C206.143 284.781 206.95 284.339 208.158 284.016C209.007 283.693 209.205 282.682 209.205 281.151V272.568C209.205 271.359 209.205 270.474 209.169 269.787C207.351 273.896 205.7 277.406 203.887 280.75C202.757 282.766 201.992 283.932 200.58 283.932C199.049 283.932 198.247 282.807 197.158 280.792C195.304 277.281 193.408 273.453 191.596 269.787V273.615V279.542C191.596 281.839 191.919 283.125 193.007 283.573C194.455 283.974 195.424 284.578 195.424 285.745C195.424 287.521 192.882 288.167 189.419 288.167C186.033 288.167 183.575 287.521 183.575 285.745Z" fill="#797166"/>
<path d="M221.335 277.807C221.335 271.281 226.455 266.766 233.908 266.766C240.643 266.766 245.153 271.24 245.153 277.484C245.153 284.052 239.955 288.49 232.658 288.49C225.851 288.49 221.335 284.057 221.335 277.807ZM234.637 285.141C236.288 285.141 237.455 283.693 237.455 281.151C237.455 277 234.997 270.109 231.893 270.109C230.283 270.109 229.075 271.479 229.075 274.099C229.075 278.292 231.45 285.141 234.637 285.141Z" fill="#797166"/>
<path d="M247.169 285.828C247.169 284.859 247.851 284.458 248.7 284.177C249.221 283.974 249.304 283.047 249.304 281.677V274.787C249.304 273.537 249.101 272.328 248.58 272.167C247.492 271.844 246.966 271.318 246.966 270.552C246.966 269.948 247.247 269.464 247.976 269.021C249.83 267.813 253.413 267.047 254.986 267.047C257.08 267.047 257.205 268.375 257.205 270.917V271.802C258.45 268.781 260.627 266.807 263.127 266.807C265.346 266.807 267.117 268.417 267.117 271.24C267.117 273.979 265.669 275.75 263.408 275.75C261.997 275.75 260.992 275.068 260.346 274.422C259.861 273.938 259.419 273.453 258.856 273.453C258.007 273.453 257.205 274.703 257.205 276.234V281.594C257.205 283.208 257.367 283.854 257.929 284.052C259.179 284.417 259.945 284.859 259.945 285.87C259.945 287.641 257.163 288.167 253.252 288.167C249.627 288.167 247.169 287.599 247.169 285.828Z" fill="#797166"/>
<path d="M267.721 278.089C267.721 271.521 272.637 266.844 278.846 266.844C284.69 266.844 287.95 270.755 287.95 274.099C287.95 276.115 286.742 277.406 284.528 277.406H274.815C275.419 280.266 277.434 281.958 280.539 281.958C282.632 281.958 284.085 281.234 285.294 280.349C285.778 280.026 286.257 279.74 286.742 279.74C287.549 279.74 288.075 280.266 288.075 281.396C288.075 282.359 287.591 283.573 286.705 284.698C285.132 286.714 282.148 288.49 278.08 288.49C271.95 288.49 267.721 284.177 267.721 278.089ZM278.721 274.786C280.778 274.703 281.664 273.979 281.664 272.729C281.664 271.24 280.575 269.948 278.721 269.948C276.387 269.948 274.815 271.964 274.611 274.865L278.721 274.786Z" fill="#797166"/>
<path d="M124.637 328.208C123.309 328.208 122.179 328.25 120.971 328.25C117.986 328.25 116.091 327.807 116.091 326.193C116.091 325.026 117.101 324.542 118.231 324.26C118.955 323.938 119.075 322.932 119.075 321.401V306.125C119.075 304.594 118.955 303.547 118.231 303.266C117.101 302.979 116.091 302.458 116.091 301.328C116.091 299.755 117.945 299.234 120.929 299.234C122.096 299.234 123.429 299.312 124.637 299.312C126.851 299.312 130.08 299.109 131.971 299.109C137.898 299.109 142.247 301.609 142.247 306.448C142.247 309.953 139.913 311.724 138.018 312.615C140.637 313.135 143.903 315.516 143.903 319.906C143.903 325.875 137.773 328.37 132.575 328.37C128.669 328.37 126.372 328.208 124.637 328.208ZM129.997 311.724C132.778 311.724 134.07 309.995 134.07 307.375C134.07 304.995 133.059 302.901 130.038 302.901C129.231 302.901 128.346 303.021 127.861 303.422C127.497 303.708 127.538 304.672 127.538 305.964V311.604C128.387 311.688 129.231 311.724 129.997 311.724ZM127.861 323.896C128.387 324.38 129.309 324.542 130.481 324.542C133.585 324.542 135.195 322.849 135.195 319.99C135.195 316.927 133.304 315.234 130.038 315.234C129.351 315.234 128.387 315.271 127.538 315.312V321.198C127.538 322.448 127.538 323.573 127.861 323.896Z" fill="#797166"/>
<path d="M145.632 318.177C145.632 311.646 150.752 307.13 158.205 307.13C164.934 307.13 169.45 311.604 169.45 317.854C169.45 324.422 164.252 328.854 156.955 328.854C150.148 328.854 145.632 324.422 145.632 318.177ZM158.929 325.511C160.585 325.511 161.752 324.057 161.752 321.521C161.752 317.37 159.294 310.479 156.189 310.479C154.58 310.479 153.372 311.849 153.372 314.469C153.372 318.656 155.747 325.511 158.929 325.511Z" fill="#797166"/>
<path d="M171.179 318.177C171.179 311.646 176.299 307.13 183.757 307.13C190.486 307.13 195.002 311.604 195.002 317.854C195.002 324.422 189.799 328.854 182.507 328.854C175.695 328.854 171.179 324.422 171.179 318.177ZM184.481 325.511C186.132 325.511 187.304 324.057 187.304 321.521C187.304 317.37 184.846 310.479 181.742 310.479C180.127 310.479 178.919 311.849 178.919 314.469C178.919 318.656 181.299 325.511 184.481 325.511Z" fill="#797166"/>
<path d="M196.611 326.193C196.611 325.229 197.335 324.823 198.184 324.542C198.669 324.339 198.747 323.412 198.747 322.042V306.365C198.747 304.995 198.424 303.745 197.82 303.505C196.611 303.141 195.924 302.62 195.924 301.771C195.924 301.167 196.21 300.646 196.934 300.198C198.95 298.99 202.695 298.224 204.387 298.224C206.523 298.224 206.684 299.557 206.684 302.136C206.684 303.547 206.648 305.276 206.648 307.292V316.521C207.294 316.078 207.976 315.594 208.622 315.151C210.111 314.063 211.242 313.057 211.523 312.412C211.762 311.927 211.601 311.646 211.08 311.443C210.356 311.245 209.549 310.88 209.549 309.833C209.549 308.339 211.32 307.417 215.877 307.417C219.986 307.417 222.002 308.261 222.002 309.792C222.002 311.042 220.955 311.563 219.46 311.849C217.809 312.172 216.882 312.735 214.507 314.427C215.591 316.443 217.164 319.464 219.341 322.646C220.268 323.938 220.71 324.261 221.315 324.542C222.565 324.787 223.33 325.146 223.33 326.156C223.33 327.724 221.153 328.531 217.768 328.531C214.986 328.531 213.981 328.172 213.174 326.958C212.127 325.63 209.872 321.318 208.539 318.698C207.856 319.182 207.252 319.667 206.648 320.151V322.042C206.648 323.698 206.726 324.339 207.21 324.542C208.179 324.865 208.861 325.188 208.861 326.193C208.861 328.011 206.283 328.531 202.695 328.531C199.111 328.531 196.611 327.969 196.611 326.193Z" fill="#797166"/>
<path d="M229.174 327.526C229.012 328.333 228.408 328.854 227.523 328.854C225.346 328.854 223.653 325.349 223.653 322.807C223.653 321.156 224.377 320.391 225.304 320.391C226.315 320.391 226.877 321.24 227.601 322.203C229.335 324.464 231.471 325.589 233.325 325.589C234.856 325.589 235.903 324.906 235.903 323.818C235.903 322.365 234.413 321.964 231.71 321.156C227.804 319.906 224.012 318.375 224.012 314.266C224.012 309.995 227.846 307.13 232.637 307.13C234.413 307.13 236.387 307.536 237.96 308.38C238.122 307.615 238.726 307.094 239.492 307.094C241.346 307.094 243.038 310.276 243.038 312.573C243.038 314.224 242.07 314.792 241.262 314.792C240.377 314.792 239.773 314.104 238.966 313.135C237.637 311.323 235.663 310.354 234.012 310.354C232.481 310.354 231.632 311.161 231.632 312.13C231.632 313.38 232.882 313.823 235.544 314.547C239.007 315.516 243.565 317.125 243.565 321.802C243.565 325.995 239.773 328.812 234.778 328.812C232.841 328.812 230.788 328.411 229.174 327.526Z" fill="#797166"/>
<path d="M268.012 118.438H91.6793C87.9136 118.438 84.8616 121.495 84.8616 125.26V231.151C84.8616 234.916 87.9136 237.969 91.6793 237.969H173.518C173.882 239.672 176.575 240.989 179.846 240.989C183.117 240.989 185.809 239.672 186.174 237.969H268.012C271.778 237.969 274.835 234.916 274.835 231.151V125.26C274.835 121.495 271.778 118.438 268.012 118.438Z" fill="#797166" stroke="#797166" stroke-width="1.11039" stroke-linecap="round" stroke-linejoin="round"/>
<path d="M269.018 120.339H90.6741V231.823L179.846 234.167L269.018 231.823V120.339Z" fill="#797166" stroke="#797166" stroke-width="1.11039" stroke-linecap="round" stroke-linejoin="round"/>
<path d="M179.846 230.141V120.339C179.846 120.339 211.325 104.125 262.085 112.068V225.224C262.085 225.224 213.111 218.74 179.846 230.141Z" fill="#FDF7E0" stroke="#797166" stroke-width="1.11039" stroke-linecap="round" stroke-linejoin="round"/>
<path d="M262.085 112.068L269.018 120.339V231.151L262.085 225.224V112.068Z" fill="#FDF7E0" stroke="#797166" stroke-width="1.11039" stroke-linecap="round" stroke-linejoin="round"/>
<path d="M179.846 230.141V120.339C179.846 120.339 148.372 104.125 97.6062 112.068V225.224C97.6062 225.224 146.58 218.74 179.846 230.141Z" fill="#FDF7E0" stroke="#797166" stroke-width="1.11039" stroke-linecap="round" stroke-linejoin="round"/>
<path d="M97.6062 112.068L90.674 120.339V231.151L97.6062 225.224V112.068Z" fill="#FDF7E0" stroke="#797166" stroke-width="1.11039" stroke-linecap="round" stroke-linejoin="round"/>
<path d="M292.492 82.4584C292.492 83.5886 291.57 84.5105 290.434 84.5105C289.299 84.5105 288.382 83.5886 288.382 82.4584C288.382 81.323 289.299 80.4011 290.434 80.4011C291.57 80.4011 292.492 81.323 292.492 82.4584Z" fill="#797166" stroke="#797166" stroke-width="0.513504" stroke-linecap="round" stroke-linejoin="round"/>
<path d="M302.955 234.818C302.955 236.823 301.33 238.453 299.325 238.453C297.32 238.453 295.695 236.823 295.695 234.818C295.695 232.813 297.32 231.188 299.325 231.188C301.33 231.188 302.955 232.813 302.955 234.818Z" fill="#797166" stroke="#797166" stroke-width="0.907304" stroke-linecap="round" stroke-linejoin="round"/>
<path d="M70.3822 234.625C70.3822 237.083 68.3874 239.073 65.9343 239.073C63.4812 239.073 61.4916 237.083 61.4916 234.625C61.4916 232.172 63.4812 230.182 65.9343 230.182C68.3874 230.182 70.3822 232.172 70.3822 234.625Z" fill="#797166" stroke="#797166" stroke-width="1.11039" stroke-linecap="round" stroke-linejoin="round"/>
<path d="M100.325 312.203C100.325 313.703 99.1062 314.917 97.6062 314.917C96.1062 314.917 94.8875 313.703 94.8875 312.203C94.8875 310.703 96.1062 309.484 97.6062 309.484C99.1062 309.484 100.325 310.703 100.325 312.203Z" fill="#797166" stroke="#797166" stroke-width="0.678716" stroke-linecap="round" stroke-linejoin="round"/>
<path d="M180.716 52.5158C180.716 53.6095 179.83 54.495 178.736 54.495C177.643 54.495 176.757 53.6095 176.757 52.5158C176.757 51.422 177.643 50.5366 178.736 50.5366C179.83 50.5366 180.716 51.422 180.716 52.5158Z" fill="#797166" stroke="#797166" stroke-width="0.444156" stroke-linecap="round" stroke-linejoin="round"/>
<path d="M260.033 312.203C260.033 313.339 260.95 314.255 262.085 314.255C263.221 314.255 264.143 313.339 264.143 312.203C264.143 311.068 263.221 310.146 262.085 310.146C260.95 310.146 260.033 311.068 260.033 312.203Z" fill="#797166" stroke="#797166" stroke-width="0.513504" stroke-linecap="round" stroke-linejoin="round"/>
<path d="M179.846 230.141V120.339C179.846 120.339 211.325 104.125 262.085 112.068V225.224C262.085 225.224 213.111 218.74 179.846 230.141Z" fill="#FDF7E0" stroke="#797166" stroke-width="1.11039" stroke-linecap="round" stroke-linejoin="round"/>
<path d="M223.242 32.8854C218.419 34 214.591 38.724 213.564 44.7708C212.533 38.724 208.705 34 203.882 32.8854C208.705 31.7708 212.533 27.0469 213.564 21C214.591 27.0469 218.419 31.7708 223.242 32.8854Z" fill="#FDE646" stroke="#797166" stroke-width="1.04104" stroke-linecap="round" stroke-linejoin="round"/>
<path d="M138.814 27.0054C136.783 27.4741 135.169 29.4689 134.731 32.021C134.299 29.4689 132.684 27.4741 130.648 27.0054C132.684 26.5366 134.299 24.5418 134.731 21.9897C135.169 24.5418 136.783 26.5366 138.814 27.0054Z" fill="#FDE646" stroke="#797166" stroke-width="0.462836" stroke-linecap="round" stroke-linejoin="round"/>
<path d="M282.294 221.177C275.039 222.849 269.268 229.964 267.721 239.073C266.174 229.964 260.403 222.849 253.148 221.177C260.403 219.5 266.174 212.385 267.721 203.281C269.268 212.385 275.039 219.5 282.294 221.177Z" fill="#FDE646" stroke="#797166" stroke-width="1.11039" stroke-linecap="round" stroke-linejoin="round"/>
<path d="M117.252 182.276C112.481 183.375 108.69 188.052 107.674 194.042C106.653 188.052 102.861 183.375 98.0906 182.276C102.861 181.172 106.653 176.5 107.674 170.51C108.69 176.5 112.481 181.172 117.252 182.276Z" fill="#FDE646" stroke="#797166" stroke-width="0.843468" stroke-linecap="round" stroke-linejoin="round"/>
<path d="M65.9344 316.646C63.7208 317.156 61.9656 319.328 61.4917 322.104C61.0177 319.328 59.2625 317.156 57.049 316.646C59.2625 316.136 61.0177 313.969 61.4917 311.193C61.9656 313.969 63.7208 316.136 65.9344 316.646Z" fill="#FDE646" stroke="#797166" stroke-width="0.536116" stroke-linecap="round" stroke-linejoin="round"/>
<path d="M294.45 316.646C296.32 317.078 297.804 318.912 298.2 321.255C298.601 318.912 300.085 317.078 301.955 316.646C300.085 316.214 298.601 314.385 298.2 312.042C297.804 314.385 296.32 316.214 294.45 316.646Z" fill="#FDE646" stroke="#797166" stroke-width="0.452656" stroke-linecap="round" stroke-linejoin="round"/>
<defs>
<linearGradient id="paint0_linear_50_27" x1="280.597" y1="126.88" x2="210.571" y2="126.76" gradientUnits="userSpaceOnUse">
<stop stop-color="#8D77AB"/>
<stop offset="1" stop-color="#7FC24A"/>
</linearGradient>
<linearGradient id="paint1_linear_50_27" x1="249.787" y1="146.801" x2="217.676" y2="146.746" gradientUnits="userSpaceOnUse">
<stop stop-color="#8D77AB"/>
<stop offset="1" stop-color="#7FC24A"/>
</linearGradient>
<linearGradient id="paint2_linear_50_27" x1="219.871" y1="105.749" x2="191.715" y2="105.749" gradientUnits="userSpaceOnUse">
<stop stop-color="#8D77AB"/>
<stop offset="1" stop-color="#7FC24A"/>
</linearGradient>
<linearGradient id="paint3_linear_50_27" x1="252" y1="5.5" x2="205.793" y2="135.097" gradientUnits="userSpaceOnUse">
<stop stop-color="#797166"/>
<stop offset="1" stop-color="#C0822C"/>
</linearGradient>
<linearGradient id="paint4_linear_50_27" x1="297.201" y1="142.87" x2="201.113" y2="142.248" gradientUnits="userSpaceOnUse">
<stop stop-color="#8D77AB"/>
<stop offset="1" stop-color="#7FC24A"/>
</linearGradient>
<linearGradient id="paint5_linear_50_27" x1="308.272" y1="153.169" x2="232.157" y2="152.677" gradientUnits="userSpaceOnUse">
<stop stop-color="#8D77AB"/>
<stop offset="1" stop-color="#7FC24A"/>
</linearGradient>
<linearGradient id="paint6_linear_50_27" x1="150.297" y1="126.474" x2="80.2716" y2="126.594" gradientUnits="userSpaceOnUse">
<stop stop-color="#8D77AB"/>
<stop offset="1" stop-color="#7FC24A"/>
</linearGradient>
<linearGradient id="paint7_linear_50_27" x1="143.193" y1="146.459" x2="111.082" y2="146.514" gradientUnits="userSpaceOnUse">
<stop stop-color="#8D77AB"/>
<stop offset="1" stop-color="#7FC24A"/>
</linearGradient>
<linearGradient id="paint8_linear_50_27" x1="168.909" y1="105.749" x2="140.751" y2="105.749" gradientUnits="userSpaceOnUse">
<stop stop-color="#8D77AB"/>
<stop offset="1" stop-color="#7FC24A"/>
</linearGradient>
<linearGradient id="paint9_linear_50_27" x1="159.511" y1="142.248" x2="63.4233" y2="142.87" gradientUnits="userSpaceOnUse">
<stop stop-color="#8D77AB"/>
<stop offset="1" stop-color="#7FC24A"/>
</linearGradient>
<linearGradient id="paint10_linear_50_27" x1="128.467" y1="152.677" x2="52.3521" y2="153.169" gradientUnits="userSpaceOnUse">
<stop stop-color="#8D77AB"/>
<stop offset="1" stop-color="#7FC24A"/>
</linearGradient>
<clipPath id="clip0_50_27">
<rect width="57" height="51" fill="white"/>
</clipPath>
</defs>
</svg>
