<svg width="41" height="41" viewBox="0 0 41 41" fill="none" xmlns="http://www.w3.org/2000/svg">
<path d="M23.2334 33.3638C25.2078 33.3644 27.1631 33.0003 28.9875 32.2925C30.8118 31.5846 32.4696 30.5467 33.8661 29.2381C36.7087 26.5731 38.2667 23.0369 38.2667 19.27C38.2667 15.5031 36.7087 11.9669 33.8661 9.30188C28.0167 3.81813 18.4774 3.81813 12.6007 9.30188C9.75806 11.9669 8.20006 15.5031 8.20006 19.27C8.20006 23.0369 9.75806 26.5731 12.6007 29.2381C13.9972 30.5467 15.655 31.5846 17.4793 32.2925C19.3037 33.0003 21.2589 33.3644 23.2334 33.3638ZM23.2334 7.73875C26.3767 7.73875 29.5201 8.86625 31.9254 11.1213C34.2487 13.2994 35.5334 16.195 35.5334 19.27C35.5334 22.345 34.2487 25.2406 31.9254 27.4188C29.6156 29.5719 26.4907 30.7806 23.2334 30.7806C19.9761 30.7806 16.8512 29.5719 14.5414 27.4188C12.2181 25.2406 10.9334 22.345 10.9334 19.27C10.9334 16.195 12.2181 13.2994 14.5414 11.1213C15.6807 10.0479 17.0352 9.19643 18.5269 8.61591C20.0187 8.03539 21.6182 7.73728 23.2334 7.73875Z" fill="#8D77AB"/>
<path d="M4.09999 38.4375C4.27923 38.4395 4.45694 38.4064 4.62171 38.3402C4.78646 38.274 4.93463 38.1762 5.05666 38.0531L14.2953 29.3919C14.842 28.8794 14.842 28.085 14.2953 27.5725C13.7487 27.06 12.9013 27.06 12.3547 27.5725L3.11599 36.2338C2.56932 36.7463 2.56932 37.5406 3.11599 38.0531C3.38932 38.3094 3.74466 38.4375 4.07266 38.4375H4.09999Z" fill="#8D77AB"/>
</svg>
